/* XPM */
static char *result[] = {
/* columns rows colors chars-per-pixel */
"64 64 230 2 ",
"   c #305C71",
".  c #345E70",
"X  c #235573",
"o  c #657868",
"O  c #F1C151",
"+  c #EEC051",
"@  c #ECBF51",
"#  c #F1C250",
"$  c #E8BD52",
"%  c #4D6B6C",
"&  c #2A5972",
"*  c #315D71",
"=  c #315C71",
"-  c #275872",
";  c #B6A35A",
":  c #F7C550",
">  c #EABE52",
",  c #FDC84E",
"<  c #A69A5D",
"1  c #295872",
"2  c #245673",
"3  c #5A726A",
"4  c #EDBF51",
"5  c #EDC051",
"6  c #F0C151",
"7  c #56706B",
"8  c #325D71",
"9  c #AB9D5C",
"0  c #F8C54F",
"q  c #F2C250",
"w  c #335D71",
"e  c #285872",
"r  c #47686D",
"t  c #E3BA53",
"y  c #F3C250",
"u  c #F6C450",
"i  c #6B7B67",
"p  c #335E70",
"a  c #225573",
"s  c #939060",
"d  c #FBC74F",
"f  c #EBBE52",
"g  c #F9C64F",
"h  c #C7AC58",
"j  c #2E5B71",
"k  c #3F646E",
"l  c #DCB654",
"z  c #F4C350",
"x  c #768165",
"c  c #215473",
"v  c #888A62",
"b  c #FAC64F",
"n  c #F5C450",
"m  c #D6B355",
"M  c #2D5A72",
"N  c #355F70",
"B  c #D3B256",
"V  c #EBBF51",
"C  c #FCC74F",
"Z  c #858963",
"A  c #205474",
"S  c #788265",
"D  c #DDB754",
"F  c #3D636F",
"G  c #2F5C71",
"H  c #C9AD57",
"J  c #FDC84F",
"K  c #918F61",
"L  c #6C7B67",
"P  c #F3C350",
"I  c #E1B953",
"U  c #48696D",
"Y  c #B9A45A",
"T  c #A3995E",
"R  c #255673",
"E  c #5B736A",
"W  c #EFC051",
"Q  c #546F6B",
"!  c #265773",
"~  c #AD9E5C",
"^  c #AF9F5C",
"/  c #516D6B",
"(  c #5E7469",
")  c #215474",
"_  c #9A945F",
"`  c #FEC84E",
"'  c #C0A859",
"]  c #2B5972",
"[  c #44666E",
"{  c #6F7D66",
"}  c #8F8E61",
"|  c #CAAD57",
" . c #3C626F",
".. c #DBB654",
"X. c #7B8464",
"o. c #225473",
"O. c #858863",
"+. c #F7C54F",
"@. c #D8B455",
"#. c #39616F",
"$. c #2C5A72",
"%. c #CDAF56",
"&. c #8D8D61",
"*. c #717E66",
"=. c #E0B953",
"-. c #41656E",
";. c #C3AA58",
":. c #99935F",
">. c #4E6C6C",
",. c #275773",
"<. c #B3A15B",
"1. c #265673",
"2. c #55706B",
"3. c #EFC151",
"4. c #58716A",
"5. c #A79B5D",
"6. c #FCC84F",
"7. c #687968",
"8. c #959160",
"9. c #C6AB58",
"0. c #2F5B71",
"q. c #3F646F",
"w. c #DEB854",
"e. c #737F66",
"r. c #898B62",
"t. c #D0B056",
"y. c #2D5A71",
"u. c #778165",
"i. c #3E636F",
"p. c #C8AC57",
"a. c #E5BB53",
"s. c #46686D",
"d. c #AC9D5C",
"f. c #8E8E61",
"g. c #7B8364",
"h. c #EBBE51",
"j. c #707E66",
"k. c #6A7B67",
"l. c #376070",
"z. c #7D8564",
"x. c #335E71",
"c. c #B8A35A",
"v. c #B1A05B",
"b. c #A2985E",
"n. c #FEC94E",
"m. c #CCAE57",
"M. c #828763",
"N. c #42666E",
"B. c #295972",
"V. c #59726A",
"C. c #275772",
"Z. c #4C6B6C",
"A. c #E9BD52",
"S. c #758065",
"D. c #386070",
"F. c #BDA659",
"G. c #A0975E",
"H. c #D9B555",
"J. c #B4A15B",
"K. c #637768",
"L. c #949060",
"P. c #818763",
"I. c #7E8564",
"U. c #9F975E",
"Y. c #506D6C",
"T. c #FAC74F",
"R. c #BCA659",
"E. c #3B626F",
"W. c #DAB554",
"Q. c #D5B355",
"!. c #C2A958",
"~. c #4B6A6D",
"^. c #647768",
"/. c #536F6B",
"(. c #DAB654",
"). c #2D5B71",
"_. c #B7A35A",
"`. c #9C955F",
"'. c #7C8464",
"]. c #5F7569",
"[. c #E5BC52",
"{. c #D1B156",
"}. c #637769",
"|. c #245573",
" X c #9B945F",
".X c #DFB854",
"XX c #D7B455",
"oX c #7F8664",
"OX c #F8C64F",
"+X c #BEA759",
"@X c #9D965F",
"#X c #617569",
"$X c #AE9E5C",
"%X c #A1985E",
"&X c #BAA55A",
"*X c #E6BC52",
"=X c #687A68",
"-X c #205374",
";X c #8E8D61",
":X c #838863",
">X c #D4B256",
",X c #365F70",
"<X c #D2B156",
"1X c #878A62",
"2X c #667868",
"3X c #E7BC52",
"4X c #49696D",
"5X c #A59A5D",
"6X c #627669",
"7X c #9B955F",
"8X c #C1A959",
"9X c #3A616F",
"0X c #2B5A72",
"qX c #4F6C6C",
"wX c #697A67",
"eX c #57716B",
"rX c #758165",
"tX c #BCA65A",
"yX c #969260",
"uX c #43666E",
"iX c #E2BA53",
"pX c #7D8464",
"aX c #3A626F",
"sX c #6E7D67",
"dX c #9D955F",
"fX c #F1C251",
"gX c #BFA759",
"hX c #E4BB53",
"jX c #908E61",
"kX c white",
/* pixels */
"    . X o O + + + @ # $ % & *         = * - ; : @ + + > , < 1 *           . 2 3 4 + 5 + 4 6 + 7 1 8           8 2 9 0 @ + + @ q ",
"  w e r t y 4 + 5 5 u i 2 w           p a s d @ + + f g h * j =         8 & k l z @ + + @ g x X w           . c v b @ + + @ n m ",
"8 M N B 0 V + + f C Z A p           . c S d @ + + @ z D F & 8         * j G H g f + + > J K A w           . a L 0 + 5 + @ P I U ",
"= 1 Y d > + + > J T X 8           . R E q W 4 + 4 6 + Q ! p           8 R ~ C > + + > C ^ ! *           p ! / @ 6 4 + 4 + z ( X ",
") _ ` > + + > b ' ]   *         w 1 [ t P @ + + @ 0 { a .           p c } J f + + f 0 |   j *         8 ]  ...n V + + @ d X.o.. ",
"O.+.@ + + V n @.#.$.8         * j 8 %.0 f + + f J &.c .           . a *.g @ + + @ z =.-.& 8         * G M ;.g > + + > , :.a p   ",
"O W 5 + @ # > >.,.p         = * ,.<.d > + + > C 9 R 8           p 1.2.W 6 4 + 4 3.6 4.R p           8 2 5.6.> + + > d ; e = =   ",
"5 5 + 5 5 u 7.X .           p o.8., > + + f g 9.j 0.*         8 & q.w.z @ + + @ g e.a .           . c r.6.f + + f +.t.. y.8     ",
"+ + + f C Z ) .           . o.u.b @ + + @ z D i.& 8         * 0.0.p.g f + + > J K c p           . a L +.4 5 + @ q a.s.1 w       ",
"+ + > J T X 8           . R E q W 4 + 4 6 + Q ! p           8 R d.C > + + > C ^ ! *           p ! / @ 6 4 + 4 + P ( 2 .         ",
"+ > b ' ]   *         w 1 [ t P @ + + @ 0 { a .           p c f.J f + + f 0 |   j *         8 ]  ...n V + + @ d g.c .           ",
"h.n @.#.$.8         * j 8 %.0 f + + f J &.c .           . a j.g @ + + @ z =.-.& 8         * G M ;.g > + + > , :.a p           = ",
"# > % ,.p         = * ,.<.d > + + > C 9 R 8           p ! 2.W 6 4 + 4 3.6 4.R p           8 2 5.6.> + + > d ; e = =         * 0.",
": k.a .           p o.8., > + + f g 9.j 0.*         8 & q.w.z @ + + @ g e.a .           . c r.6.f + + f +.t.. y.8         * M l.",
"z.R x.          . o.u.b @ + + @ z D i.& 8         * 0.0.p.g f + + > J K c p           . a L +.4 5 + @ q a.s.1 w         = G j c.",
"& *           . R E q W 4 + 4 6 + Q ! p           8 R d.C > + + > C v.! *           p ! / @ 6 4 + 4 + P ( 2 .           w a b.n.",
"*           w 1 [ t P @ + + @ 0 { a .           p c f.J f + + f 0 m.= j *         8 ]  ...n V + + @ d g.c .           . ) M.d f ",
"          * j 8 %.0 f + + f J &.c .           . a j.g @ + + @ P I N.B.8         * G M ;.g > + + > , :.a p           . X o n + 5 ",
"        = * ,.<.d > + + > C 9 R 8           p ! 2.W 6 4 + 4 3.O V.R p           8 2 5.6.> + + > d ; e = =         x.C.Z.A.# @ + ",
"        p o.8., > + + f g 9.j 0.*         8 & q.w.z @ + + @ b S.o..           . c r.6.f + + f +.t.. y.8         8 $.D.m u V + + ",
"      . o.u.b @ + + @ z D i.& 8         * 0.0.p.g f + + > J s o.p           . a L +.4 5 + @ q a.s.1 w         =   & F.b > + + 4 ",
"    . R E q W 4 + 4 6 + Q ! p           8 R d.C > + + > C v.! * =         p ! / @ 6 4 + 4 + P ( 2 .           w X G.J > + + @ q ",
"  w 1 [ t P @ + + @ 0 { a .           p c f.J f + + f 0 m.= j *         8 ]  ...n V + + @ d g.c .           . ) M.C h.+ + @ z H.",
"8 j 8 %.0 f + + f J &.c .           . a j.g @ + + @ P I N.B.8         * G M ;.g > + + > , :.a p           . X o n + 5 + @ q a.>.",
"* ,.J.d > + + > C 9 R 8           p ! 2.W 6 4 + 4 3.O V.R p           8 2 5.6.> + + > d ; e = =         x.C.Z.A.# @ + 5 + u K.a ",
"A L.` > + + f g 9.j 0.*         8 & q.w.z @ + + @ b S.o..           . c r.6.f + + f +.t.. y.8         8 $.D.m u V + + V d P.c . ",
"I.u 4 + + @ z D i.& 8         * 0.0.p.g f + + > J s o.p           . X L +.4 5 + @ q a.s.1 w         =   & F.b > + + > J U.X w   ",
"3.3.5 + 4 6 + Q ! p           8 R d.C > + + > C v.! * =         p ! Y.@ 6 4 + 4 + P ( 2 .           w X G.J > + + > T.R.&   =   ",
"+ 5 + + @ 0 { a .           p c f.J f + + f 0 m.= j *         8 ] E.W.n V + + @ d g.c .           . ) M.C h.+ + V u Q.l.$.8     ",
"+ + + f J &.c .           . a j.g @ + + @ P I N.B.8         * G $.!.g > + + > , :.a p           . X o n + 5 + @ # $ ~.e x.      ",
"+ + > C 9 R 8           p ! 2.W 6 4 + 4 3.O V.R p           8 2 < 6.> + + > d ; e = =         x.C.Z.A.# @ + 5 + n ^.X .         ",
"+ f g 9.j 0.*         8 & q.w.z @ + + @ b S.o..           . ) v C f + + f +.t.. y.8         8 $.D.m u V + + V d P.c .           ",
"V z D i.& 8         * 0.0.p.g f + + > J s o.p           . X i +.4 5 + @ q a.s.1 w         =   & F.b > + + > J U.X w           = ",
"6 + /.! p           8 R d.C > + + > C v.! * =         p ! Y.@ 6 4 + 4 + P ( 2 .           w X G.J > + + > T.R.&   =         * G ",
"g *.c .           p c f.J f + + f 0 m.= j *         8 ] E.(.n V + + @ d g.c .           . ) M.C h.+ + V u Q.l.$.8         * ).. ",
"Z R w           . a j.g @ + + @ P I N.B.8         * G $.!.g > + + > J :.a p           . X o n + 5 + @ # $ ~.e x.        =   $.v.",
"& =           p ! 2.W 6 4 + 4 3.O V.R p           8 2 < 6.> + + > d _.e = =         x.C.Z.A.# @ + 5 + n ^.X .           p c `.n.",
"*           8 & q.w.z @ + + @ b S.o..           . ) v C f + + f +.t.. y.8         8 $.D.m u V + + V d P.c .           . c '.d V ",
"          * 0.0.p.g f + + > J s o.p           . X i +.4 5 + @ q a.s.e w         =   & F.b > + + > J U.X w           . 2 ].P + 4 ",
"          8 R d.C > + + > C v.! * =         p ! Y.@ 6 4 + 5 + P ].2 .           w X G.J > + + > T.R.&   =         w e r [.q @ + ",
"        p c f.J f + + f 0 m.= j *         8 ] E.(.n V + + @ d X.c .           . ) M.C h.+ + h.u Q.l.$.8         8 M . {.: f + + ",
"      . a *.g @ + + @ P I N.B.8         * G $.!.g > + + > J :.a p           . X o n + 5 + @ q $ ~.e x.        = = e c.d > + + 4 ",
"    p R 7 W 6 4 + 4 3.6 4.R p           8 2 5.6.> + + > d ; e = =         p C.Z.A.# @ + 5 + z }.|..           x.a  XJ > + + 4 # ",
"  8 & k .Xz @ + + @ g e.a .           . c r.6.f + + f +.t.. y.8         8 $.D.XXu V + + V d oXc .           . c z.d V + + @ z D ",
"* j G p.OXf + + > J K c p           . a L +.4 5 + @ q a.s.1 w         =   & +Xb > + + > J @XX w           . 2 #Xz + 5 + @ q $ /.",
"8 R $XC > + + > C ^ ! *           p ! / @ 6 4 + 4 + P ( 2 .           w X %XJ > + + > d &X1   =         w e U *Xq @ + 5 4 0 =Xc ",
"-X;X` f + + f 0 |   j *         8 ]  ...n V + + @ d g.c .           . ) :XC h.+ + h.u >X,X$.8         8 M N <X: h.+ + f C 1Xc . ",
"S n 5 + + @ z =.-.& 8         * G M ;.g > + + > , :.a p           . X 2Xu 5 5 + @ q 3X4Xe w         = = 1 Y d > + + > J 5X2 8   ",
"+ 6 5 + 4 3.6 4.R p           8 2 5.6.> + + > d ; e = =         x.C.Z.A.# @ + 5 + z 6X|..           x.a 7X, > + + > b 8X$.G *   ",
"+ 5 + + @ g e.a .           . c r.6.f + + f +.t.. y.8         8 $.D.m u V + + V d oXc .           . c z.d V + + V n H.9X0X8     ",
"+ + + > J K c p           . a L +.4 5 + @ q a.s.1 w         =   & F.b > + + > J @XX w           . 2 #Xz + 5 + @ O V qX,.p       ",
"+ + > C ^ ! *           p ! / @ 6 4 + 4 + P ( 2 .           w X G.J > + + > d &X1   =         w e U *Xq @ + 5 4 : wXX .         ",
"+ f 0 |   j *         8 ]  ...n V + + @ d g.c .           . ) M.C h.+ + h.u >X,X$.8         8 M N <X: h.+ + f C 1Xc .           ",
"@ P =.-.& 8         * G M ;.g > + + > , :.a p           . X o n + 5 + @ q 3X4Xe w         = = 1 Y d > + + > J 5X2 8             ",
"3.6 eXR p           8 2 5.6.> + + > d ; e = =         x.C.Z.A.# @ + 5 + z 6X|..           x.a 7X, > + + > b 8X$.G *         = G ",
"b rX) .           . c r.6.f + + f +.t.. y.8         8 $.D.m u V + + V d oXc .           . c z.d V + + V n H.9X0X8         * j 8 ",
"r.R 8           . a L +.4 5 + @ q a.s.1 w         =   & F.b > + + > J @XX w           . 2 #Xz + 5 + @ O V qX,.p         =   & d.",
"]             p ! / @ 6 4 + 4 + P ( 2 .           w X G.J > + + > T.tXB.  =         w e U *Xq @ + 5 4 : wXX .           p ) yXn.",
"*           8 ]  ...n V + + @ d g.c .           . ) M.C h.+ + V u Q.l.$.8         8 M N <X: h.+ + f C 1Xc .           . o.x b @ ",
"          * G M ;.g > + + > , :.a p           . X o n + 5 + @ # $ ~.e x.        = = 1 Y d > + + > J 5X2 8           p R 3 # W 4 ",
"          8 2 5.6.> + + > d ; e = =         x.C.Z.A.# @ + 5 + n ^.X .           x.a 7X, > + + > b 8X$.G *         w 1 uXiXP @ + ",
"        p A r.6.f + + V 0 {.. y.8         8 ] l.m u V + + @ 6.P.) .           p A pXd V + + @ u W.aX0X8         * M = m.0 f + + ",
"      w 2 sX+.4 5 + 4 P I s.1 w         = 0.).+Xb > + + @ d dXX w           8 R K.z + 5 + 4 # $ qX,.p             & <.d > + + + ",
"    8 & Y.> fX@ + + + 6 K.X .           8 C.`.` > + + @ u gX]   =         * 0Xr hXy @ + + 4 P sXo..           8 ! jX, > + + + + "
};
