/* XPM */
static char *_536dc5b51ce40b58f6d1312b7124adervfRaTvZdWwgYWz5[] = {
/* columns rows colors chars-per-pixel */
"64 64 201 2 ",
"   c #DE890A",
".  c #E2A20D",
"X  c #D9A22D",
"o  c #EC9C5F",
"O  c #DCA45A",
"+  c #ECAC4A",
"@  c #EDB64F",
"#  c #E8A652",
"$  c #E5B354",
"%  c #CF9B62",
"&  c #DBA368",
"*  c #DEBB67",
"=  c #DFB06C",
"-  c #DFAD78",
";  c #DCAB73",
":  c #DEB37E",
">  c #E5AF67",
",  c #EFAE6C",
"<  c #E5A464",
"1  c #F6B460",
"2  c #EDBC77",
"3  c #E3B47C",
"4  c #F9BD7C",
"5  c #F3C27F",
"6  c #F9C07C",
"7  c #DFB783",
"8  c #DEBB93",
"9  c #DFBF98",
"0  c #E6B681",
"q  c #E3BA85",
"w  c #EFBA86",
"e  c #E5B688",
"r  c #E5BC8C",
"t  c #EABE8D",
"y  c #F0BE86",
"u  c #E4BF95",
"i  c #E2BE99",
"p  c #DEC08E",
"a  c #EBC186",
"s  c #EBC38A",
"d  c #F4C182",
"f  c #FBC48E",
"g  c #F2C38B",
"h  c #ECC494",
"j  c #EFCB92",
"k  c #E4C49C",
"l  c #EAC59B",
"z  c #E3CD9E",
"x  c #EDCA9C",
"c  c #F5C394",
"v  c #F9C792",
"b  c #F3CB95",
"n  c #F8CB94",
"m  c #F2C49B",
"M  c #F3CB9D",
"N  c #FBCD9D",
"B  c #EFDD9F",
"V  c #FCD791",
"C  c #F1D09A",
"Z  c #FAD59C",
"A  c #DFD5B2",
"S  c #E4C4A3",
"D  c #E9C5A4",
"F  c #E4CCA4",
"G  c #ECCBA4",
"H  c #E5CDAB",
"J  c #EDCDAB",
"K  c #F5CCA2",
"L  c #FACEA5",
"P  c #F2CDAC",
"I  c #FFCDAD",
"U  c #EBD3A3",
"Y  c #EDD9A6",
"T  c #E5D2AB",
"R  c #ECD3AC",
"E  c #EDD8AE",
"W  c #F4D3A3",
"Q  c #FAD2A3",
"!  c #F3D8A3",
"~  c #FFDAA4",
"^  c #F3D4AC",
"/  c #FBD5AD",
"(  c #F4DAAD",
")  c #FCDBAD",
"_  c #EACDB7",
"`  c #F2CCB3",
"'  c #E5D3B2",
"]  c #EDD4B4",
"[  c #EDDBB5",
"{  c #E5D4BB",
"}  c #ECD6BB",
"|  c #E7D9BD",
" . c #EDDBBB",
".. c #F3D5B3",
"X. c #FAD6B3",
"o. c #F5DBB4",
"O. c #FBDCB5",
"+. c #F3D6BA",
"@. c #FBD7BB",
"#. c #F4DCBC",
"$. c #FBDDBB",
"%. c #EFE1B2",
"&. c #E6E4BD",
"*. c #ECE0BD",
"=. c #F5E2B6",
"-. c #FDE2B5",
";. c #F4E2BD",
":. c #FCE2BC",
">. c #F6E9BD",
",. c #FDEBBC",
"<. c #ECD7C4",
"1. c #E5DBC3",
"2. c #EDDCC4",
"3. c #E7DFCC",
"4. c #ECDDCB",
"5. c #F4DDC2",
"6. c #FBDDC2",
"7. c #F1D7CA",
"8. c #F3DECA",
"9. c #F9DFCB",
"0. c #E8DED2",
"q. c #F9DDD1",
"w. c #E6E6C0",
"e. c #EDE2C3",
"r. c #EFE9C7",
"t. c #EEE3CC",
"y. c #EFE9CE",
"u. c #F4E3C4",
"i. c #FBE4C4",
"p. c #F5EAC4",
"a. c #FDEAC5",
"s. c #F4E5CB",
"d. c #FCE5CB",
"f. c #F5EACC",
"g. c #FDEBCC",
"h. c #EFF1CA",
"j. c #FFF1C4",
"k. c #F4F3CB",
"l. c #FEF1CD",
"z. c #EDE6D2",
"x. c #EFEAD3",
"c. c #EEECDA",
"v. c #ECE4D9",
"b. c #F4E6D2",
"n. c #FCE6D3",
"m. c #F5EAD3",
"M. c #FCECD3",
"N. c #F5E7DC",
"B. c #FEE6DA",
"V. c #F5ECDB",
"C. c #FCEDDB",
"Z. c #F6F1D5",
"A. c #FEF2D5",
"S. c #FFFAD4",
"D. c #F5F2DC",
"F. c #FEF3DB",
"G. c #F7F8D9",
"H. c #FEF9DD",
"J. c #EEEEE3",
"K. c #FFE5E7",
"L. c #F4EDE2",
"P. c #FCEDE2",
"I. c #FEEDEC",
"U. c #EEF1E0",
"Y. c #EEF0EB",
"T. c #F5F2E3",
"R. c #FEF1E6",
"E. c #FEF5E6",
"W. c #FDF4E3",
"Q. c #F5F8E3",
"!. c #FEF9E1",
"~. c #FFF9E6",
"^. c #FEF9E6",
"/. c #FFFCE5",
"(. c #FEF9E4",
"). c #F5F5E9",
"_. c #FDF3E9",
"`. c #FFF2E9",
"'. c #FFF6EA",
"]. c #FEF6ED",
"[. c #FCF5EA",
"{. c #F5F9EC",
"}. c #FEF9EB",
"|. c #FEFEEA",
" X c #FFFAEE",
".X c #FEFBEC",
"XX c #F6EDF0",
"oX c #FFEFF0",
"OX c #FEEEF9",
"+X c #F7F6F2",
"@X c #FFF3F0",
"#X c #FAF6F1",
"$X c #FDF5F2",
"%X c #F7FBF3",
"&X c #FFFBF3",
"*X c #FFFBF0",
"=X c #FFF9F7",
"-X c #FBFFF7",
";X c #FEFDF3",
":X c #F6FBFF",
">X c #FEFEFC",
/* pixels */
"R.F.V.F.Q.D.G.Z.g.Z.9.:.a.M.}.n.s.Z.H.M.F.(.F.g.A.Z._.^.F.G.F.F.H.(.~.W.F.(.~.}.G.C.'.{.H.F.R.}.#X&XR.R.&X=X@XP.}.H.;XZ.R.P.E.R.",
"g.i.u.n.C.B.M.M.a.u.J $.:.} M.d.] g.#.5.M.F.u.u.H T.-XF.:.A.D.Q.F.V.}.P.C.V.W.R.g.O.F.{.m.i.V.}.|.(.C.b.^.|.D.d._.+XQ.C.V 6.Y p.",
"p.f.>.u.f.d.d.6.g.,.J d.d.J u.} J S.+.+.f.H. .#.l./.o.a M C.2.^  .] g.u.f.u.f.H.^ r g._.5.5.b.'. XL.V.V.E.~.m.Z.i.OX].I . + * K.",
"C.d.6.g.i.S i L g.>.P s.m.X.a.2.^ l.o.` s.A.} :.Q.C.J l i.&XC.:.g.f.}.C.F.F.P. Xi.x g.].M.f.m._.&X_.P.E.|._.P. XC.D.|.) c ` %.S.",
"b.C.C.F.Z.f.g.j.f.a.@.b.V.d.a.d.$.f.i.5.M.A.g.A.F.F.F.M.F.V.F.C.F.R. X_.T.'.P._.C.a.M.'.C.m.W.C.~.W.t.m.H.C.F._.H.k.[.p.I._._.C.",
"C.d.8.M.V.m.n.i.u.u.d.n.M.i.*.5.6. .i.6.s.m.d.d.n.p.m.M.b.y.M.d.m.m.C.V.m.H.F.m.c.W.V.C.g.C.Q.C.b.F.m.V.M.M.C.L.K.g.n.,.f.u.d.B.",
"S.g.f.H.W.W.H.#.5.H.M.g.l.M.Z.i.d.e.g.d.u.m.u.$._.|.~.H.C.).;XF.R.E.E.'.W.C.C.s.F.~.C.i.:.F.).d.V._.;XP.B.M.n. X'.u.P.;X_.i.o.(.",
"C.] u.H.C.[ ^ l ..H.i.F F } f.X.#. .d.d.| g...^ =.R.0.:.b :.C.Q.f.C.C.Z.A. .=.^ A.d...m b F.).M.|.V.(.u.o.o.H A.W.R C.G.M.j h E.",
"F.#.:.C.C.G Q X.O.A.s.| F O.A._.Z.g.#.C.P.'.u.) W.C.u.i.#.M.b.W.O.F R #./.t.n.u.).g.Q g h i.H.s.o.M.}.V.s.p.g.A.A.W O.P.P.h j l.",
"}.A.M.'.}.s.i.u.V.E.W.E.C.F.F.V.9.n.d.F.W.^.y.u.F.F.H.H.d.F.F.'.g.g.d.C.~.m.C.g.;XW.i.#.u.R.~.b.s.V.}.)._.~.E.}.D.i.i.F.}.b.B.R.",
"s.d.i.m.m.s.i.d.m.M.d.g.g.d.g.i.C.C.V.f.f.f.s.n.t.s.C.f.f.m.b.f.d.A.u.d.D.D.M.f.v.C.H.F.U.Y.F.C.M.M.A.M.d.d.s.V.N.M.d.,.p.M.n.d.",
"W.H.H.F.W.W.M.H.W.F.W.Z.C.d.H.W.l.M.d.M.H.H.M.d.F.F.C.V.F.A.M.d.M.(.s.n.F.W.d.s.E.H.M.F.|._.C.g.F.W.W.F.F.C.W._.C.b.H.C.C.}.V.F.",
"g. .g.2.F./.M.g.g.A.~.b.#.] s.).W h h ..R._.A.i.M.F.C.2.H.M.u.i.8.F.d.d.Z.m.#.i.E.C.[ #.C.W.V.A.c.F.5.d.g.f.~.F.i.4.).2.6.u.&.g.",
":...d.J :.A.] u r #.H.g.:.a.A.Q.$.^ X.i.~.m.T q 1.F.H.2.M.A.i.$.n.H.d.d.A.C.d.M.Q.C.#.u.W.[. X|.d.A...+.+.o.g.+.$ U W.A.A.d.P.Z.",
"F.D.(.M.W.;XF.#.d.F.~.t.{ C.~..XC.V.d.g.F.g.-.~ 2.C.A.5.d.a.i.:.F.H.g.6.Z.F.d.s.W.A.;.d.|.;X).v.V.W.Z.H.W.W.C.5.) F.;XH.d.2.R.H.",
"M.T.V.A.d.c.F.g.F.M.M.A.M.C.f.A.n.A.Z.m.Z.F.C.I.F.M.p.i.#.;.#.d.s.m.d.s.f.F.n.M.i.a.=.d.P._.R.g.C.M.M.d.V.F.M.g.C.s.f.m.m.a.i.d.",
"d.d.z.M.n.T.l.M.V.V.A.g.u.M.F.b.m.M.u.u.F.c.Z.g.g.d.g.i.;.:.a.u.:.p.H.A.C.V.b.g.F.V.V.B.n.H.i.u.M.F.C.F.B.V.F.b.f.g.M.u.i.i.C.C.",
"~.M e.}.F.F.#.f.(.W.C.i.p.m.M.#.V.A.$.u.H.W.C.g.A.H.u.] :.=.$.l.i.#.#.d.H.A.i.u.R.F.S.H.D.W.u.O.m.E.m.X.R t.|.F.M.M.M.d.g.i.d.F.",
"g.> x F.,.-.G ^ :.x.b.:.a.}.W.:.m.A.} ] C.C.u.i.8.n.g.d.i.o...d.+.^ G u.g.O.O.d.;XC.$.$.V.H.s.^ :.H.o.6 6 O.F.i.s.i.s.s.g.u.f.A.",
"C.Z o.E.C.d.d.p.g.~.m.#.u.W.D.$.F.W.d.5.A.g.] J ' H.M.5.i.X.] d.u.$.E :...u k g.D. .J ` s.R.M.=.C.~. .s s >.R.f.C.M.M.d.l.;. .u.",
"M.d.M.V.m.b.V.d.g.A.M.u.m.F.C.A.F.M.u.u.d.A.g.i.g.d.A.p.;.i.g.a.g.g.g.a.:.#.#.g.A.A.A.A.M.d.d.#.V.W.A.u.a.M.W.R.A.A.Z.s.g.#...$.",
"a.s.a.f.M.M.M.i.V.M.g.C.F.M.f.m.g.s.A.A.p.d.i.;.;.i.f.u.i.;.;.;.o.f.s.:.O.F.d.:.u.g.M.d.g.d.M.C.i.d.n.F.D.d.d.p.u.f.m.s.g.i.6.6.",
"s.| #.D.R.i.b.o.F.M.6.^ $.n.F.M.p.u.g.g.u.i.g.A.$.i.A.a.] :.l.g.i.d.A.g. .M.i.:.G.A.u.@.F.F.W.H.A.C.H.W.D._._.F.d.d.F.C.C.d.d.d.",
"u.Z n F.a.w X.q g.C. .t M H.(. .#.#.g.g.u.u.u.F.k :.g.] R a.g. .=.^ a.A.| d.R #.'.F.o. .|.{.C.i.G | M.a.:.b.m.:.$.u.M.A.Z.f.m.F.",
"g./ X.M.M...O.[ P.a.F.p.XXn.C.=.O.;.g.n.u.d.O.j.R a.g...>.l.d. .i.d.g.g.#.g.] i.F.N b.M.h C.s.M.o.=.i.D.m.g.d.f.g.;.i.:.z W J M.",
";.+.5.Z.C.5.i.i.D.g.A.g.r.g.W.B.g.m.A.A.d.#.;.M.d.F.F.5.e.g.g.m.C.A.A.m.s.F.m.C.C.$.A.g...A.C.A.W.W.W.Q. XA.C. XC.C.W.C.$.O.d.F.",
"#.s.s.s.p.n.M.g.t.n.C.C.p.a.>.u.s.s.s.u.=.$.i.s.i.u.#...o.:.$.u.i.u.i.;.i.g.;.;.u.f.g.u.s.a.M.m.M.d.n.d.M.i.d.b.C.V.N.M.d.g.F.b.",
"g.(.F.A.g.F.C.A.F.n.P.C.Q.C.W.B.F.C.F.F.H.m.R.F.M.a...$.l.m.d.l.g.d.A.M.A.M.g.A.A.Z.$.f.A.d.W.g.$...M.E.V.g.H.t.A.M.V.n.5.] ;.;.",
"t.g.i.M.m.i.} m.g.^ s.o.C.G m , f h i.S.d.[ o.d.F.a.e M H.V.d.:.g.p.A.g.d.] 5.g.F.i.J t.i.:.D.^ w 0 ../.z.} =.6.H.s.d.A.$.=.( a.",
"M.^ J u.M.i.#.W.d.R f.( C.2 #   < 3 :.g.u.:.O.) C.-.& w A.m.@.j J X.g.:...G R ..F.a.o.s.O.g.T.M 4 4 Q H.f.G M a.~.2.5.A.d.M.+.g.",
"a.J S T a.g.d.H.}.m.Q.p.~.;.+.K G  .F.T.z.W.m.| A.f.^ O.A.F.n.u.<.f.H.A.A.C.F.A.T.g.u.M.i.F.A...o.O.u.E.F. .' F.R.f.d.g.;.#.+.i.",
";.6.d.o.a.d.b.m.p.M.B.B.m.n.m.C.a.i.i.g...X.:.:.a.p.i.$.=.:.d.Z.A.d.u.s.g.d.M.g.L.g.b.g.b.J.d.d.b.s.d.M.C.d.g.m.M.u.>.=.%.;.g.i.",
"i.p.:.C.L.n.R.y.M.C.a.A.g.d.F.6.6.H.m.d.M.l.d.O.$.f.a.^ f.V.C.d.C.C.f.m.f.A.M.V.l.M.M.C.d.p.f.C.F.A.C.C.F.L.p.n.F.u.i.:.g.d.+.O.",
"n.1.( p.H.^ g.b.b.C.#.] ' 2.A.u.5.S.A.u.l.*.a.O.o.H.g.:.F.F.#.o.2.g.g.C.d.#.p.~.u.+.i.F.n.i.i.M.E.p.n.p.(.R.| i.d.H G W i.u.] O.",
":.J L ^ A.h Q $.F.A.#.+.+.i.A.#.` i.#.D X.H i.X.^ g.$.J n.F.o.-.n.H.u.i.d.E i.F.i.E #.(.A.$.d.H.M.#.5.8.A.F.#.g.i.l l J d.d.u.g.",
">.5.$.u._.i.j R F.A.u.d.d.M.M. ...>.a.#.g.;.g.6...f.g.P n.u.T =.F.H.a.8.d...u.F.C.#.i.F.F.6.:.W.f.g.C.d.C.F.u.C.g.O.O.o.i.u.;.d.",
"f.g.j.k.V.F.=.;.D.C.M.C.M.s.A.p.i.u.M.g.A.g.p.u.X.t.g.O.S.A.g.F.F.u.u.d.n.a.g.F.M.d.s.V.Z.d.u.C.d.F.A.b.F.A.s.b.A.M.A.g.g.u.u.g.",
"s.$.d.f.q.9.a.C.f.m.g.d.f.b.C.;.d.d.d.6.6.u.u.d.:.M.p.o.#.s.d.B.C.*.u.8.d.:.u.t.d.M.C.d.g.g.C.C.f.C.f.m.M.p.V.H.m.z.b.d.g.#.5.g.",
"_...oXI.i.d.d._.F.M.M.H.(.(.A.+.f.H.f.g.d.g.S.f.v g.g.a.g.C.H.C.g.l.g.S.a.o.;.W.$.b.F.g.O.M.W.d.A.C.f.C.n.[ F.F.~.W.F.C.F.u.s.d.",
"p.a H.U X @ - n.C.#.| M.F.d.#.` g.A.] ..+.#.S.+.O O.M.5.b.2.g.#.k ^ z ;.:.U E n./ t.F.:.x 4.W.$.#.f. .A.g.o.R.M.s.A.F.M.g.u.M.b.",
"B.~ |.D o q p d.s.A.M.m.H.d...#.H.i.) E [ f.F.u.= W g.u.i.=.g.4.' O.M i.A.o.d.^.d.:.Z.C. .n.}.e.u.M.2.M.C.2.H.F./ c b 5.M.i.a.V.",
").Z.G.g.a.f.S.H.i.W.W.u.g.A.u.^ l.M.C.C.C.C.F.f.i.M.F.F.A.A.S.l.F.g.g.A.d.u.g.E.s. .f.C.p.u.E.f.C.A.M.C.M.u.F.F.V.n.d.V.C.g.g.M.",
"d.i.O.:.i.d.u.u.s.d.f.M.M.;.#.i.+.8.s.s.$.o.i.b.d.#.i.:.;.#.! ) ;.#.:.O...#.i.:.f. .9.C.A.r.C.n.p.n.F.n.n.d.b.b.Z.C.d.f.t.9.n.d.",
"d.^ d.V.C.d.n.>XH.d.d.F.F.d.=.g.A.A.i.,.j.j.a.g.;.p.A.n.m.A.d.d.u.A.;.d.g.5.d.F.g.O.O.$.F.H.C.d.f.M.H.C.A.H.C.W.i.6.i.g.a.i.i.l.",
"M.2 w..XH.A a.{.M.m.s.i.a.F.g.X.D.A.:.#.C.D. .z C o.H.s.a.d.g.C.A.-.x d.F.o.#.W...q d s d.P.s.i.f.g.C.e. .u.A.H.l s M g.F.u.u.I.",
"8.1 Y C.O.C.,.d.F.f.s.A.g. .#.i.F.$.N M 8.F.:.N N O.F.#.Q j ! g.^ % ; :.M.-.O.(.:.t d s n._.e.a.M.H.M.u.u.u.F.F._.p.i.R.E.o.E m.",
"P.) a.M._ ;X2.$.|.d.d.(.d.k k ;.n.L 3 0 ^ g.$.I #.b.W.d. .T o.g.u.k :.(.C.u.u._.a.+.W W n.C.*.M.C.A.Z.M.g.M.F.F.}.A.f.D.E.g.d.}.",
"g.x.D.l.g.m.m.g.s.V.A.a.d.p.:.O.u.>.a.a.s.s.e.a.*.:.i.d.g.g.g.$.:.g.i.:.i.u.g.u.r.C.d.d.n.l.l.B.C.B.R.M.C.F.P.L.C.C.C.m.F.n.d.Z.",
"V.D.M.l.d.T.V.i.d.g.M.Y.C.a.f.d.i.a.^ ( g.i.:.+.d.s.a.o.#.n.p.:.a. .f.d.u.i.i.a.C.M.Z.D.F.C.g.g.d.b.C.g.d.V.T.R.].d.M.k.f.g.a.V.",
"}._.C.a.C..X|.n.R ) g.V.i.a.d.d.~.H.u.e.C.(.C.:.g.A.u.=.#.2.H.:.:.o.i.l.i.#.#.5.C.F.F.M.d.C.W.Q.[ f.=XR.! =.}.P.n.[ F.s.s.E.i.M.",
"g.u.E J $.f.C.o.U ..A.A.$.d.f.O.L.W.m.t.C.H.#.S ;.g.] :.a.p.i.u h S #.C.M.d.M.C.x.H.C.i.:.A.&X:Xg.M.>XL.3 j ~.n.#.a.W.M.q.N.p. .",
"F.F.d.a.Z.F.~.M.o.:.H.C.i.b.b.O.F.H.g.i.g.H.g./ :.C.d.:.u.Z.d.P X.+.M.H.F.M.m.m./.E.n.} H u. X>XF.C.-XV.K $.E.i.o.G. XR.C.L.F.i.",
"D.F.C.F.V.F.F.V.s.C.D.C.g.m.V.=.d.l.d.5.s.f.d.O.l.g.C.d.i.G.M.d.X.u.M.C.C.M.d.M.V.R.W.F.F.H.W.].C.C.W.A.F.E._.d.g.c.}.V.n.|.T.C.",
"M.g.u.A.d.g.a.m.C.M.t.m.M.m.x.:.s.d.g.M.V.V.M.g.u.s.b.A.M.f.V.i.:.f.D.V.m.C.M.f.C.C.C.C.D.V.C.n.A._.L.M.F.U.J.].W.[.D.m.g.g.B.C.",
"~.s.m.}.T.M.s._.F...g.H.F.F.H.S.M.| d.f.V.~.d.g.O.H.W.F.i.5.F.l...g.F.E.R.F.F.W.}.W.F.F.'.}.V.u.M.C.+X^.M.C.%X XF.$XD.}.H.o.n.F.",
"H.+.A.F.M.O...F.g.q O.f.} $.} +.g.R g.i.g.M.i e l n.G.f.$.n.F.2.x o.A.W.C.V.b.R.T.f.;.u.C.$X_.C.B.M.%X;X$.C.>XF.Z.b.g._.C.W J p.",
"g.| A.a.h e F H.d.3 #.C.( i.7.O.i.6.d.s.F.C.G h s i.F.u.;.F.H.g.) s.}.H.^ h ^ R.R.V.L.V.V.M.~.W.C.L.F.u.}._.5.}.c.g.;.W.D.=...H.",
"F.s.f.d.P ..#.F.A.O.M.D.l.(.C.S.d.f.H.C.F.H.#./ d.C.;XF.4.b.R.R.d.d.F.F.i...$.C.%X|.F.C.;X;XV.M.b.}.C.M.}.P.f.|.=X XP.R.C.9.@.d.",
"5.o.( -.$.$.;.:.] :...| u.i.5.i.C.f.m.b.b.F.A.g.l.b.z.g.j.g.x.x.M.n.M.M.M.C.M.C.V.W. XE.V.V.b.C.F.'.t.C.}.T.C.T.V.Q.V.f.i.>.;.=.",
"s.;.:.=.G.m.f.f.p.g.i.A.F.s.a.C.W.F.F.F.m.m.F.u.M.}.F.d.:.d.M.~.g.f.V.C.F.R.C.C.C.V.>X-XC.M.~.E.F.E.C.E._.L.F._.{. XW.Q.F.Z.d.M.",
"g.P ~ D g.n.5.X.;.5.#.j.C.+.E C.C.M.i.g.m.d.A.2.A.(.A.C q k l./.i.r.V.F.g.d.s.L.R.m.R.C.E.L.R.f.d.M.L. XC.W.L._.P.i.6.n.B.$.$.b.",
"i.l Q h i.d...~ ) i.O.( a...m a.g.u. .i.u.M.F.d.b.#X}.n.i.n.L.L.:.t.T.F.g.:.s.Q.E.V.|.C.d.u.(.V.5. .L..XF.W.L.C.M.O./ s.m.=.:.W.",
"m.s.Z.b.W.W.m.l.p.A.g.u.F.d.i.G.g.d.g.M.A.F.F.5.u.~.D.f.A.H.V./.n.M.F.H.C.M.C.F.M.N.;XP.../ F.%X6.6.;X-XF.C.W.~. XC.n.D.V.u.A.Q.",
"d.d.f.d.d.d.i.6.#.u.i.:.r.$.6. .+.[ $.s.s.m.g.5.O.n.b.d.d.d.f.d.V.d.d.d.s.V.M.g.V.P.f.i.i.g.b.T.M.i.T.Y.M.d.V.M.b.V.M.d.d.5.g.d."
};
