/* XPM */
static char *result[] = {
/* columns rows colors chars-per-pixel */
"64 64 116 2 ",
"   c #BBCDA5",
".  c #B5CDAD",
"X  c #97CED5",
"o  c SkyBlue",
"O  c #88CEEA",
"+  c #9FCECA",
"@  c #B9CDA8",
"#  c #BBCDA4",
"$  c #B7CDAA",
"%  c #9BCED0",
"&  c #BCCDA4",
"*  c #BACDA6",
"=  c #B6CDAC",
"-  c #9CCECF",
";  c #88CEE9",
":  c #B6CDAB",
">  c #B8CDA9",
",  c #A0CECA",
"<  c #89CEE8",
"1  c #87CEEC",
"2  c #87CEEA",
"3  c #98CED5",
"4  c #B4CDAF",
"5  c #B9CDA7",
"6  c #A3CDC5",
"7  c #8ACEE7",
"8  c #86CEEC",
"9  c #95CED9",
"0  c #B1CDB2",
"q  c #A7CDC0",
"w  c #8CCEE4",
"e  c #91CEDD",
"r  c #AECDB6",
"t  c #AACDBB",
"y  c #8ECEE2",
"u  c #8FCEE0",
"i  c #ACCDBA",
"p  c #AECDB7",
"a  c #91CEDE",
"s  c #A8CDBF",
"d  c #B0CDB3",
"f  c #93CEDA",
"g  c #8BCEE6",
"h  c #A4CDC3",
"j  c #BACDA7",
"k  c #B3CDAF",
"l  c #97CED6",
"z  c #A0CEC9",
"x  c #9ACED1",
"c  c #9DCECD",
"v  c #9ECECC",
"b  c #99CED3",
"n  c #9CCECE",
"m  c #A1CEC8",
"M  c #96CED6",
"N  c #B3CDB0",
"B  c #A5CDC2",
"V  c #8BCEE5",
"C  c #93CEDB",
"Z  c #B0CDB4",
"A  c #B1CDB3",
"S  c #BBCDA6",
"D  c #A8CDBE",
"F  c #8DCEE3",
"G  c #90CEDF",
"H  c #ADCDB8",
"J  c #ACCDB9",
"K  c #8DCEE2",
"L  c #A9CDBD",
"P  c #8ECEE1",
"I  c #AFCDB5",
"U  c #92CEDC",
"Y  c #8CCEE5",
"T  c #A6CDC1",
"R  c #B2CDB1",
"E  c #95CED8",
"W  c #A2CDC6",
"Q  c #B4CDAE",
"!  c #98CED4",
"~  c #89CEE9",
"^  c #9FCECB",
"/  c #A4CDC4",
"(  c #8ACEE6",
")  c #94CED9",
"_  c #92CEDD",
"`  c #AFCDB6",
"'  c #ABCDBB",
"]  c #94CEDA",
"[  c #A5CDC3",
"{  c #A1CDC8",
"}  c #B8CDA8",
"|  c #9ECECD",
" . c #99CED2",
".. c #A2CDC7",
"X. c #90CEDE",
"o. c #ADCDB7",
"O. c #AACDBC",
"+. c #A3CDC6",
"@. c #B5CDAE",
"#. c #B2CDB2",
"$. c #ABCDBA",
"%. c #A9CDBE",
"&. c #96CED7",
"*. c #8ACEE8",
"=. c #9ACED2",
"-. c #B7CDAB",
";. c #A3CEC6",
":. c #B8CDAA",
">. c #8FCEE1",
",. c #9BCED1",
"<. c #A2CEC7",
"1. c #A6CDC2",
"2. c #9DCECE",
"3. c #A1CEC7",
"4. c #9BCECF",
"5. c white",
/* pixels */
"              . X o o o o o o o o o o o O + @ #                       $ % o o o o o o o o o o o o % $ &                       * ",
"                = - O o o o o o o o o o o ; - : &                       > , < 1 o o o o o o o o o 2 3 4 &                       ",
"                # 5 6 7 8 o o o o o o o o o o 9 0 &                       * q w 8 o o o o o o o o o 8 e r #                     ",
"                      t y 8 o o o o o o o o o 8 u i                         # p a 8 o o o o o o o o o 8 w s *                   ",
"                      & d f 1 o o o o o o o o o 8 g h j #                     & k l o o o o o o o o o o 1 < z > &               ",
"*                       & . x 2 o o o o o o o o o o ; c $ &                     & $ v ; 1 o o o o o o o o o o b . &             ",
"n . &                     # @ m < 1 o o o o o o o o o o M N &                       * B V 8 o o o o o o o o o 1 C Z &           ",
"1 f A &                       S D F 8 o o o o o o o o o 8 G H                           J G 8 o o o o o o o o o 8 K L           ",
"o 8 P t                         # I U 8 o o o o o o o o o 8 Y T *                       & R E o o o o o o o o o o 8 7 W @ #     ",
"o o 8 7 6 5 #                     & Q ! o o o o o o o o o o 1 ~ ^ > &                     & : n O o o o o o o o o o o O % = &   ",
"o o o o O - : &                     & > + ~ 1 o o o o o o o o o o ! Q &                     # 5 / ( 8 o o o o o o o o o 1 ) 0 & ",
"o o o o o o E R &                       * q w 8 o o o o o o o o o 8 _ ` #                         ' P 8 o o o o o o o o o 8 u L ",
"o o o o o o 8 u J                           p a 8 o o o o o o o o o 8 F D S                       & A ] 1 o o o o o o o o o 1 < ",
"o o o o o o o 8 V [ j                       & N M o o o o o o o o o o 1 < { } #                     & = x O o o o o o o o o o o ",
"o o o o o o o o 1 ; | $ &                     & $ v ; 1 o o o o o o o o o 2  .. &                     # @ ..7 8 o o o o o o o o ",
"o o o o o o o o o o o l N &                       j [ g 8 o o o o o o o o o 1 C Z &                         L F 8 o o o o o o o ",
"g 1 o o o o o o o o o 8 X.o.                          J u 8 o o o o o o o o o 8 y O.                        # I U 8 o o o o o o ",
"H _ 8 o o o o o o o o o 8 w q *                       & R E o o o o o o o o o o 8 7 +.5 #                     & @.b o o o o o o ",
"& 4 ! o o o o o o o o o o 1 < + > &                     & : - O o o o o o o o o o o O % = &                     & > , < 1 o o o ",
"  & > ^ ~ 1 o o o o o o o o o o ! Q &                     # 5 6 7 8 o o o o o o o o o o 9 #.&                       * q w 8 o o ",
"      * T Y 8 o o o o o o o o o 8 U I #                         O.y 8 o o o o o o o o o 8 u $.                        # p a 8 o ",
"          H G 8 o o o o o o o o o 8 F %.                        & A f 1 o o o o o o o o o 8 g h j #                     & k l o ",
"          & N &.o o o o o o o o o o 1 *.{ @ #                     & . =.2 o o o o o o o o o o ; c $ &                     & $ z ",
"            & $ c ; o o o o o o o o o o 2 =.. &                     # @ m *.1 o o o o o o o o o o &.N &                         ",
"              # j h g 8 o o o o o o o o o 1 ] A &                         D F 8 o o o o o o o o o 8 G H                         ",
"                    $.u 8 o o o o o o o o o 8 y O.                        # I U 8 o o o o o o o o o 8 Y T *                     ",
"                    & #.9 o o o o o o o o o o 8 7 6 5 #                     & Q ! o o o o o o o o o o 1 ~ ^ > &                 ",
"                      & = % O o o o o o o o o o o O - : &                     & > + < 1 o o o o o o o o o o ! 4 &               ",
"-.#                     # 5 ;.7 8 o o o o o o o o o o E R &                       * q w 8 o o o o o o o o o 8 e ` #             ",
") I #                         O.y 8 o o o o o o o o o 8 u J                           o.X.8 o o o o o o o o o 8 F D *           ",
"8 F L                         & Z C 1 o o o o o o o o o 8 g [ j                       & N l o o o o o o o o o o 1 < m @ #       ",
"o 8 7 ..@ #                     & .  .2 o o o o o o o o o 1 ; v $ &                     & $ c ; 1 o o o o o o o o o 2 =.. &     ",
"o o o O x = &                     # } { < 1 o o o o o o o o o o M N &                       j [ V 8 o o o o o o o o o 1 C Z &   ",
"o o o o 1 ] A &                       S D F 8 o o o o o o o o o 8 a p                           J u 8 o o o o o o o o o 8 y O.  ",
"o o o o o 8 P '                         # ` _ 8 o o o o o o o o o 8 w q *                       & R E o o o o o o o o o o 8 ( , ",
"o o o o o o 8 ( / 5 #                     & Q ! o o o o o o o o o o 1 ~ , > &                     & : - O o o o o o o o o o o o ",
"o o o o o o o o O n : &                     & > ^ ~ 1 o o o o o o o o o o ! Q &                     # 5 6 7 8 o o o o o o o o o ",
"o o o o o o o o o o E R &                       * T Y 8 o o o o o o o o o 8 U I #                         t P 8 o o o o o o o o ",
"1 o o o o o o o o o 8 G J                           H G 8 o o o o o o o o o 8 F D S                       & d f 1 o o o o o o o ",
"G o o o o o o o o o o 8 V B *                       & N &.o o o o o o o o o o 1 < m @ #                     & . x O o o o o o o ",
"4  .o o o o o o o o o o 1 ~ v $ &                     & $ c ; o o o o o o o o o o O x . &                     # @ m < 1 o o o o ",
"& > z < 1 o o o o o o o o o o l k &                     # j h g 8 o o o o o o o o o 1 f d &                       S D F 8 o o o ",
"    * s w 8 o o o o o o o o o 8 a p #                         i u 8 o o o o o o o o o 8 y t                         # I U 8 o o ",
"      # r e 8 o o o o o o o o o 8 w q *                       & 0 9 o o o o o o o o o o 8 7 6 5 #                     & Q ! o o ",
"        & 4 X o o o o o o o o o o 1 < z > &                     & = % O o o o o o o o o o o O - : &                     & > + < ",
"          & :.^ < 1 o o o o o o o o o o ! 4 &                     # @ 6 ( 8 o o o o o o o o o o E 0 &                       * O.",
"              * q w 8 o o o o o o o o o 8 e ` #                         ' >.8 o o o o o o o o o 8 P '                         & ",
"                  p X.8 o o o o o o o o o 8 F s *                       & A ] 1 o o o o o o o o o 8 g / 5 #                     ",
"                  & N l o o o o o o o o o o 1 < z @ #                     & = ,.O o o o o o o o o o o O n -.&                   ",
"                    & $ | ; 1 o o o o o o o o o o =.. &                     # @ <.7 8 o o o o o o o o o o &.R &                 ",
"&                       j [ V 8 o o o o o o o o o 1 C Z &                         L K 8 o o o o o o o o o 8 G J                 ",
"d                           J u 8 o o o o o o o o o 8 y O.                        & Z U 8 o o o o o o o o o 8 V 1.*             ",
"F T *                       & R E o o o o o o o o o o 8 7 W @ #                     & Q b o o o o o o o o o o 1 ~ v $ &         ",
"1 ~ + > &                     & : - O o o o o o o o o o o O % = &                     & > z < 1 o o o o o o o o o o X 4 &       ",
"o o o ! Q &                     # 5 6 7 8 o o o o o o o o o o ) 0 &                       * q w 8 o o o o o o o o o 8 e r #     ",
"o o o 8 U I #                         t P 8 o o o o o o o o o 8 u $.                        # r e 8 o o o o o o o o o 8 w s *   ",
"o o o o 8 F D S                       & A f 1 o o o o o o o o o 8 g h j #                     & 4 X o o o o o o o o o o 1 < z > ",
"o o o o o 1 < m @ #                     & . x O o o o o o o o o o o ; 2.$ &                     & $ v ~ 1 o o o o o o o o o O &.",
"o o o o o o o 2 x . &                     # @ 3.< 1 o o o o o o o o o o &.N &                       * 1.V 8 o o o o o o o o o 8 ",
"o o o o o o o o 1 f d &                       S %.F 8 o o o o o o o o o 8 G H                           J G 8 o o o o o o o o o ",
"o o o o o o o o o 8 y O.                        # I U 8 o o o o o o o o o 8 Y T *                       & R &.o o o o o o o o o ",
"1 o o o o o o o o o 8 7 6 5 #                     & Q ! o o o o o o o o o o 1 ~ ^ > &                     & -.n O o o o o o o o ",
"b ; o o o o o o o o o o O 4.=                       & > , < o o o o o o o o o o o X 4                       # 5 / g o o o o o o ",
"@ + O o o o o o o o o o o o l .                         * / < o o o o o o o o o o 8 C R                           D V o o o o o "
};
