/* XPM */
static char *result[] = {
/* columns rows colors chars-per-pixel */
"64 64 252 2 ",
"   c white",
".  c #F3F2F4",
"X  c #DDDDE2",
"o  c #C6C6CE",
"O  c #B1B0BB",
"+  c #A09FAD",
"@  c #9594A4",
"#  c #9190A0",
"$  c #9291A1",
"%  c #9594A3",
"&  c #9897A6",
"*  c #9A99A8",
"=  c #9B9AA9",
"-  c #9998A7",
";  c #A0A0AD",
":  c #B5B4BF",
">  c #CBCBD2",
",  c #E2E1E6",
"<  c #F4F4F6",
"1  c #FEFEFE",
"2  c #FDFDFD",
"3  c #FDFDFE",
"4  c #F6F6F7",
"5  c #E6E6E9",
"6  c #D2D1D8",
"7  c #BDBCC6",
"8  c #AAA9B6",
"9  c #9C9BAA",
"0  c #9493A3",
"q  c #9392A2",
"w  c #9695A4",
"e  c #9B9AA8",
"r  c #9A99A7",
"t  c #9695A5",
"y  c #9F9EAC",
"u  c #ADACB8",
"i  c #C0C0C9",
"p  c #D5D5DB",
"a  c #E9E9EC",
"s  c #F9F9FA",
"d  c #F4F4F5",
"f  c #E2E2E6",
"g  c #CDCDD4",
"h  c #B8B7C2",
"j  c #A6A5B2",
"k  c #9493A2",
"l  c #9796A5",
"z  c #9796A6",
"x  c #B0AFBB",
"c  c #C5C4CD",
"v  c #DADADF",
"b  c #EEEEF0",
"n  c gray99",
"m  c #EFEFF1",
"M  c #DCDCE1",
"N  c #C7C6CE",
"B  c #B2B1BD",
"V  c #A2A1AE",
"C  c #9897A7",
"Z  c #A4A3B1",
"A  c #CECED5",
"S  c #E3E2E6",
"D  c #F5F4F6",
"F  c gray98",
"G  c #EAEAED",
"H  c #D6D6DC",
"J  c #C1C0C9",
"K  c #9E9DAB",
"L  c #9391A1",
"P  c #9D9CAA",
"I  c #ABAAB7",
"U  c #BEBEC7",
"Y  c #D4D4DA",
"T  c #E8E8EB",
"R  c #F8F8F9",
"E  c #E5E5E9",
"W  c #D1D0D7",
"Q  c #BBBBC4",
"!  c #A8A8B4",
"~  c #9290A1",
"^  c #C4C4CC",
"/  c #EDEDF0",
"(  c #FEFEFF",
")  c #F2F2F4",
"_  c #E0E0E4",
"`  c #CBCAD2",
"'  c #B6B5C0",
"]  c #A4A3B0",
"[  c #B5B5C0",
"{  c #CACAD2",
"}  c #E0DFE4",
"|  c #EEEDF0",
" . c #A8A7B4",
".. c #BBBAC4",
"X. c #D0D0D7",
"o. c #E5E5E8",
"O. c #E9E8EC",
"+. c #D5D4DA",
"@. c #BFBEC7",
"#. c #ACABB7",
"$. c #9392A1",
"%. c #E0E0E5",
"&. c #CCCBD3",
"*. c #A5A4B1",
"=. c #A1A0AE",
"-. c #B2B1BC",
";. c #DCDBE1",
":. c #FFFEFF",
">. c #DBDAE0",
",. c #C5C5CD",
"<. c #B1B0BC",
"1. c #A5A4B2",
"2. c #B7B7C1",
"3. c #CCCCD3",
"4. c #E1E1E5",
"5. c #F3F3F5",
"6. c #BFBFC8",
"7. c #9D9CAB",
"8. c #9593A3",
"9. c #9C9BA9",
"0. c #AAA9B5",
"q. c #D2D2D8",
"w. c #E7E7EA",
"e. c #F7F7F8",
"r. c #FEFDFE",
"t. c #F5F5F6",
"y. c #E4E4E8",
"u. c #CFCFD6",
"i. c #BAB9C3",
"p. c #A7A7B3",
"a. c #AFAEBA",
"s. c #C3C2CB",
"d. c #D8D8DE",
"f. c #ECECEE",
"g. c #FBFBFB",
"h. c #F1F1F3",
"j. c #DFDEE3",
"k. c #C9C9D1",
"l. c #A3A2B0",
"z. c #9A9AA8",
"x. c #A3A2AF",
"c. c #B4B3BE",
"v. c #C9C8D0",
"b. c #DEDEE2",
"n. c #F0F0F2",
"m. c #FBFBFC",
"M. c #ECECEF",
"N. c #D9D9DE",
"B. c #C3C3CC",
"V. c #AFAFBA",
"C. c #9F9FAD",
"Z. c #A7A6B3",
"A. c #B9B8C3",
"S. c #E3E3E7",
"D. c #E7E7EB",
"F. c #D3D3D9",
"G. c #BEBDC7",
"H. c #AAAAB6",
"J. c #ABABB7",
"K. c #BFBEC8",
"L. c #E8E8EC",
"P. c #B0B0BB",
"I. c #DBDADF",
"U. c #C7C7CF",
"Y. c #B2B2BD",
"T. c #A2A1AF",
"R. c #B9B8C2",
"E. c #FAFAFB",
"W. c #EBEAED",
"Q. c #D7D6DC",
"!. c #C1C1CA",
"~. c #AEADB9",
"^. c #9E9DAC",
"/. c #9C9CAA",
"(. c #ABAAB6",
"). c #D4D3DA",
"_. c #F6F6F8",
"`. c #E6E5E9",
"'. c #D1D1D7",
"]. c #BCBBC5",
"[. c #A9A8B5",
"{. c #DAD9DF",
"}. c #EDEDEF",
"|. c #A4A4B1",
" X c #CAC9D1",
".X c #DFDFE3",
"XX c #A1A0AD",
"oX c #BABAC4",
"OX c #D0CFD6",
"+X c #F5F5F7",
"@X c #F9F9F9",
"#X c #ACACB8",
"$X c #D6D5DB",
"%X c #EAE9ED",
"&X c #B7B6C0",
"*X c #9795A5",
"=X c #DCDBE0",
"-X c #EFEEF1",
";X c #FCFCFD",
":X c #DBDBE0",
">X c #C6C5CE",
",X c #B1B1BC",
"<X c #B7B6C1",
"1X c #EAE9EC",
"2X c #C0BFC9",
"3X c #E6E6EA",
"4X c #C2C2CB",
"5X c #D8D7DD",
"6X c #EBEBEE",
"7X c #A3A3B0",
"8X c #B3B3BE",
"9X c #C8C7D0",
"0X c #EDECEF",
"qX c #C4C3CC",
"wX c #E8E7EB",
"eX c #CECDD4",
"rX c #B8B8C2",
"tX c #C8C7CF",
"yX c #B3B2BD",
"uX c #A6A5B3",
"iX c #D7D7DD",
"pX c #C2C1CA",
"aX c #9E9EAC",
"sX c #F7F6F8",
"dX c #D1D1D8",
"fX c #9999A7",
"gX c #E1E0E5",
"hX c #B6B6C0",
"jX c #BAB9C4",
"kX c #ACABB8",
"lX c #EEEEF1",
"zX c #E5E4E8",
"xX c #DFDFE4",
"cX c #CECDD5",
"vX c #E3E2E7",
"bX c #CDCCD4",
"nX c #BDBDC6",
"mX c #D3D2D9",
"MX c #BCBCC5",
"NX c #9B9BA9",
"BX c #C3C3CB",
"VX c #D9D8DE",
"CX c #F3F3F4",
"ZX c #B4B4BF",
"AX c #DEDEE3",
"SX c #D5D4DB",
"DX c #CDCCD3",
"FX c #A5A5B2",
"GX c #C6C5CD",
"HX c #A1A1AE",
"JX c #ADADB9",
"KX c #F1F0F3",
/* pixels */
"                                            . X o O + @ # $ % & * = * * - - - - - - - - - - - - & ; : > , <           1 2 3 1   ",
"                                                    4 5 6 7 8 9 0 $ q w - * e * r - - - - - - - - & % q t y u i p a s           ",
"3 1 1                                         1 1             d f g h j - q $ k l - e e * - - - - - * * - z 0 $ # w + x c v b n ",
"        1 3 1                                         1 3 1           2 m M N B V l $ $ % & * e * * - - - - * e e r l 0 $ $ C Z ",
"A S D           1 3 3 1                                       1 1 3 1           F G H J u K % $ L @ & * e * * - - - - * e * - t ",
"$ 0 P I U Y T R           1 3 1 1                                       1 1 3 1           4 E W Q ! = q ~ q t - * e * - - - - * ",
"e * & @ $ $ w + x ^ v / n           1 3 1 (                                       1 3 3             ) _ ` ' Z & $ $ 0 l r e e * ",
"- - - * e e * l 0 $ $ & ] [ { } ) (           3 3 1                                       ( 1 3 1           n | v c O + t $ $ % ",
"* e * * - - - - * e * - t q ~ q =  ...X.o.4           1 3 1 1                                       1 1 3 1           R O.+.@.#.",
"k ~ q t - * e * - - - - * * e * & @ $.$ % K u J H G s           1 3 1 1                                       1 3 3 1           ",
"%.&.' *.- L $ 0 l r e e * - - - - * * e * & % $ $ l =.-.o ;.m 2           1 3 1 :.                                      1 3 1   ",
"      n b >.,.<.=.t $ $ % & * e * * - - - - * e e - l 0 $ q - 1.2.3.4.5.            3 3 1                                       ",
"1 3 1           s a p 6.#.7.8.$ q w - * e * * - - - r * e * - w q ~ 0 9.0.7 q.w.e.          1 3 1 1                             ",
"        1 r.3 1           t.y.u.i.p.* q ~ q t - e e * - - - - * * e * & @ $ $ @ y a.s.d.f.g.          1 3 1 1                   ",
"                  1 3 3           1 h.j.k.: l.& $ $ 0 z * e e * - - - - * z.e * z 0 $ $ z x.c.v.b.n.1           r.3 1           ",
"                          1 1 3 1           m.M.N.B.V.C.w $ $ @ & * e * * - - - - * e e - l q $ q * Z.A.A S.<           1 3 3 1 ",
"                                    1 1 3 1           R D.F.G.H.9 0 ~ q w - * e * r - - - r * e * - w q ~ 0 P J.K.Y L.R         ",
"1 3 1 1                                       1 3 3 (           d f g h j - q $ k l - e e * - - - - * * e * & % $ $ w + P.^ I./ ",
"          1 3 1                                         1 3 1           2 m M U.Y.T.l $ $ 8.& * e * * - - - - * e e r l 0 $ L & ",
"R.g S.<           1 3 3 1                                       1 1 3 1           E.W.Q.!.~.^.@ $ $ @ & * e * * - - - - * e * - ",
"q ~ 0 /.(.U ).T R           1 3 1 1                                       1 1 3 1           _.`.'.].[.= k ~ q t - * e * - - - - ",
"* e * & @ $ $ w + x ^ {.}.m.          1 3 1 (                                       1 3 3             ) _ > ' |.& L $ 0 l r e e ",
"- - - - * e e * l 0 $ $ & ] :  X.Xh.1           3 3 1                                       ( 1 3 1           n b >.,.O XXt $ $ ",
"& * e * * - - - - * e * - t q ~ q z. .oXOXy.+X          1 3 1 1                                       1 1 3 1           @Xa Y 6.",
"= k # q t - * e * r - - - * * e * C w q $ % K #Xi $X%Xs           1 3 1 1                                       1 3 3 1         ",
") 4.> &X*.- $.$ 0 l - e e * - - - - * * e * & % $ $ *X=.-.o =X-X;X          1 3 1 (                                       1 3 1 ",
"        ;Xb :X>X,X=.t $ $ % & * e * * - - - - * e e - l 0 $ q - *.<X3.4.5.            3 3 1                                     ",
"1 1 3 1           s 1X$X2X#XK % $ q w C * e * * - - - r * e * - t q ~ 0 9.0.7 q.3Xe.          1 3 1 1                           ",
"          1 r.3 1           +Xy.OXoX .* q ~ q t - z.e * - - - - * * e * & @ $ $ @ y ~.4X5X6XE.          1 3 1 1                 ",
"                    1 3 3           1 h..X X: 7X& $ $ 0 z * e e * - - - - * * e * z 0 $ $ l T.8X9XX n.3           1 3 1         ",
"                            ( 1 3 1           m.0XN.qXV.+ w $ $ @ & * e * * - - - - * e e - l k $ q * Z.R.A S.<           1 3 3 ",
"                                      1 1 3 1           R wXF.G.(.9 0 ~ q w - * e * r - - - r * e * - w q ~ 0 P I @.Y T R       ",
"  1 3 1 1                                       1 3 3 (           d f eXrXj r q $ k l - e e * - - - - * * e * & @ $ $ w + x c {.",
"2           1 3 1                                         1 3 1           2 n.X tXyXT.l $ $ 0 & * e * * - - - - * e e * l 0 $ L ",
"uXh eXf d           ( 3 3 1                                       1 1 3 1           E.6XiXpX~.aX@ $ $ @ & * e * * - - - - * e * ",
"w q ~ 0 9 (.G.F.wXR           1 3 1 1                                       1 1 3 1           sX5 dX].[.= k ~ q t - * e * fX- - ",
"* * e * & @ $ $ w + V.B.N.M.m.          1 3 1 (                                       1 3 3             ) gX> hX*.- $.$ 0 l r e ",
"* - - - - * e e * z 0 $ $ & l.: k.j.h.1           3 3 1                                       ( 1 3 1           n b >.,.<.=.t $ ",
"@ & * e * * - - - - * e e - t q ~ q *  .jXu.y.+X          1 3 r.1                                       1 1 3 1           s a p ",
"0.9.k ~ q w - * e * r - - - * * e * - w q $ % 7.kX2Xp a s           1 3 1 1                                       1 r.3 1       ",
"  5.4.3.<X1.- q $ 0 l - e e * - - - - * * e * & % $ $ t =.,X>X:XlX;X          1 3 1 (                                       1 3 ",
"          2 m ;.o -.=.l $ $ % & * e * * - - - - * e e - l 0 $ $.- *.&X&.gX.             3 3 1                                   ",
"  1 1 3 1           s G H i u K % $ $.w C * e * * - - - r * e * - t q ~ k = [.].dX5 sX          1 3 1 1                         ",
"            1 1 3 1           4 zXOX.. .e q ~ q t - * e * - - - - * * e * & @ $ $ @ aX~.pXiX6XE.          1 3 1 1               ",
"                      1 3 3           1 h.xX X: ] & $ $ 0 l * e e * - - - - * * e * & 0 $ $ l T.yXtXX n.3           1 3 1       ",
"                              ( 1 3 1           m.}.{.^ x + w $ $ @ & * e * * - - - - * e e - l k $ q r uXR.cXvX<           1 3 ",
"1                                       1 1 3 1           R T ).U I P 0 ~ q w - * e * r - - - r * e * - w q ~ 0 /.(.U ).T R     ",
"    1 3 1 1                                       1 3 3 1           < S.A R.Z.* q $ k l - e e * - - - - * * e * & @ $ $ w + x qX",
"m 2           1 3 1                                         1 3 1           3 n.X 9X8XT.l $ $ 0 & * e * * - - - - * e e * z 0 $ ",
"- j h bXf 5.          ( 3 3 1                                       1 1 3 1           E.6X5XpX~.y @ $ $ @ & * e * * - - - - * e ",
"- w q ~ 0 9 8 nXmXw.e.          1 3 1 1                                       1 1 3 1           e.3X6 MX[.NXk ~ q t - * e * fX- ",
"- * * e * & @ $ $ w y a.BXVXM.g.          1 3 1 1                                       1 3 3             CX4.&.<X*.- q $ 0 l - ",
"* * - - - - * e e * z 0 $ $ & l.ZXk.AXh.1           3 3 1                                       ( 1 3 1           ;XlX:X>X-.=.l ",
"$ @ & * e * * - - - - * e e - l q $ q * p.i.u.y.t.          1 3 3 1                                       1 1 3 1           s %X",
"7 8 9.0 ~ q w - * e * r - - - * * e * - w q $ 8.7.#.6.SXa s           1 3 1 1                                       1 1 3 1     ",
"    5., DX2.FX- q $ k l - e e * - - - - * * e * & % $ $ t =.O ,.>.b n           1 3 1 (                                       1 ",
"1           2 m M N B =.l $ $ % & * e * * - - - - * e e r l 0 $ L & |.' > _ )             3 3 1                                 ",
"    1 1 3 1           s G H J u K % $ $.@ & * e * * - - - - * e * - t q ~ k = [.].'.`._.          1 3 r.1                       ",
"              1 1 3 1           4 o.X... .= 0 ~ q w - * e * r - - - * * e * & @ $ $ @ ^.~.pXiX6XE.          1 3 1 1             ",
"                        1 3 3           1 ) 4.3.2.FX- q $ k l - e e * - - - - * * e * & 0 $ $ l T.<.GX:Xb ;X          1 3 1 (   ",
"                                ( 1 3 1           2 m M N B HXl $ $ % & * e * * - - - - * e e - l 0 $ $.- *.hX> %.)             ",
"1                                         1 1 3 1           s G H i u 7.0 # $ @ & * * * - - - - r * e * - t q ~ k = [.].dX5 e.  ",
"                                                    1 1 3 1           4 E '.].0.9 @ q @ & - - - - - - - - * * e * & @ $.$ @ aXJX",
"j.d                                                           1 3 3           1 KXX o x 7.C - - - - - - - - - - - - * e = * z 0 "
};
