/* XPM */
static char *result[] = {
/* columns rows colors chars-per-pixel */
"64 64 200 2 ",
"   c #716059",
".  c #B57C6C",
"X  c #CF8673",
"o  c #746159",
"O  c #CD8572",
"+  c #B97D6D",
"@  c #736159",
"#  c #78635B",
"$  c #DE8C77",
"%  c #A17466",
"&  c #82675E",
"*  c #E79079",
"=  c #8D6B60",
"-  c #74625A",
";  c #936E62",
":  c #E58F79",
">  c #7E665C",
",  c #A97768",
"<  c #DA8A76",
"1  c #76625A",
"2  c #BF806E",
"3  c #C78371",
"4  c #75625A",
"5  c #D48874",
"6  c #B0796A",
"7  c #7B645C",
"8  c #E38E78",
"9  c #997064",
"0  c #74615A",
"q  c #88695F",
"w  c #E8907A",
"e  c #87695F",
"r  c #9B7164",
"t  c #E28E78",
"y  c #7A645B",
"u  c #AF796A",
"i  c #D58874",
"p  c #C68270",
"a  c #C0806F",
"s  c #77625A",
"d  c #DB8B76",
"f  c #A77668",
"g  c #7F665D",
"h  c #E68F79",
"j  c #926D62",
"k  c #8E6C61",
"l  c #E78F79",
"z  c #81675D",
"x  c #A27466",
"c  c #E48E79",
"v  c #AA7769",
"b  c #D88A75",
"n  c #C3816F",
"m  c #C48170",
"M  c #D78975",
"N  c #AC7869",
"B  c #7D655C",
"V  c #966F63",
"C  c #8A6A60",
"Z  c #85685E",
"A  c #9E7265",
"S  c #E08D78",
"D  c #79645B",
"F  c #B47B6B",
"G  c #D18773",
"H  c #CB8472",
"J  c #BB7E6D",
"K  c #77635A",
"L  c #DD8C77",
"P  c #A47567",
"I  c #8F6C61",
"U  c #916D62",
"Y  c #DD8B77",
"T  c #CA8472",
"R  c #D28774",
"E  c #B27A6B",
"W  c #E28D78",
"Q  c #86695F",
"!  c #886A5F",
"~  c #987064",
"^  c #EB917A",
"/  c #9F7365",
"(  c #E08D77",
")  c #79635B",
"_  c #B77C6C",
"`  c #CE8673",
"'  c #B87D6C",
"]  c #DF8C77",
"[  c #A17366",
"{  c #83675E",
"}  c #E7907A",
"|  c #7E655C",
" . c #A87668",
".. c #C88371",
"X. c #BE7F6E",
"o. c #EE937C",
"O. c #956E63",
"+. c #D88975",
"@. c #C38170",
"#. c #8B6A60",
"$. c #84685E",
"%. c #9D7265",
"&. c #E18D78",
"*. c #78635A",
"=. c #A37467",
"-. c #81665D",
";. c #DC8B76",
":. c #BD7F6E",
">. c #C98371",
",. c #D38774",
"<. c #F0937C",
"1. c #8B6B60",
"2. c #A07366",
"3. c #CE8572",
"4. c #8C6B60",
"5. c #D98A76",
"6. c #D58875",
"7. c #7C645C",
"8. c #9A7164",
"9. c #7B645B",
"0. c #A67567",
"q. c #E9907A",
"w. c #AB7869",
"e. c #956F63",
"r. c #B57B6C",
"t. c #D08673",
"y. c #CB8572",
"u. c #BA7E6D",
"i. c #80665D",
"p. c #906D61",
"a. c #A67667",
"s. c #D38874",
"d. c #B17A6B",
"f. c #946E62",
"g. c #C1806F",
"h. c #C58270",
"j. c #D68975",
"k. c #AE796A",
"l. c #C98471",
"z. c #AD7869",
"x. c #C2816F",
"c. c #AB7769",
"v. c #CC8572",
"b. c #BA7D6D",
"n. c #A57567",
"m. c #7F665C",
"M. c #B67C6C",
"N. c #AA7768",
"B. c #D98A75",
"V. c #896A5F",
"C. c #9C7165",
"Z. c #B37B6B",
"A. c #BC7E6D",
"S. c #726159",
"D. c #976F63",
"F. c #7C655C",
"G. c #C48270",
"H. c #726059",
"J. c #8D6C61",
"K. c #82675D",
"L. c #83685E",
"P. c #946E63",
"I. c #C0806E",
"U. c #C78370",
"Y. c #987063",
"T. c #86695E",
"R. c #9C7265",
"E. c #977063",
"W. c #9F7366",
"Q. c #926E62",
"!. c #A97668",
"~. c #DC8B77",
"^. c #CA8471",
"/. c #B57B6B",
"(. c #B07A6A",
"). c #BF7F6E",
"_. c #BC7E6E",
"`. c #B17A6A",
"'. c #E48F79",
"]. c #B87D6D",
"[. c #A67668",
"{. c #A47467",
"}. c #D58975",
"|. c #E48E78",
" X c #916D61",
".X c #EF937C",
"XX c #A37466",
"oX c #EC927B",
"OX c #DA8B76",
"+X c #9A7064",
"@X c #DF8D77",
"#X c #D08773",
"$X c #B37A6B",
"%X c #EE927B",
"&X c #906C61",
"*X c #86685E",
"=X c #8D6C60",
"-X c #C68370",
";X c #C1816F",
":X c white",
/* pixels */
"  . X o o O + @ # $ % o & * = - ; : > o , < 1 @ 2 3 @ 4 5 6 @ 7 8 9 0 q w e 0 r t y o u i 4 @ p a @ s d f o g h j - k l z o x c ",
"@ v b 1 @ n m @ 4 M N o B c V 0 C w Z 0 A S D @ F G 0 o H J @ K L P o z l I - U h g 0 P Y K @ J T o - R E @ y W r 0 Q w ! 0 ~ ^ ",
"4 / ( ) @ _ ` o o O ' @ # ] [ o { } = - ; : | o  .< 1 @ a p @ 4 i u @ 7 8 9 0 ! w Q 4 9 8 7 @ 6 5 4 @ ..X.@ s d f o g h U 0 k o.",
"K O.: B o N +.1 @ n @.@ 4 M N o B c V 0 #.w $.0 %.&.D @ F G 0 o H J @ *.L =.o z l I 4 I l -.o P ;.K @ :.>.@ - ,.E @ y W r 0 Q <.",
") 1.w { o 2.] # @ ' 3.o o ` _ @ # ] 2.o { } 4.- ; : > o , 5.1 @ a p @ 4 6.u @ 7.8 ~ 4 e w q 0 8.&.9.@ E ,.4 @ >.:.@ K d 0.o -.q.",
"9.{ w #.0 V c B o N M 4 @ @.n @ 1 +.w.o B : e.- C w Z 0 A S D @ r.t.0 o y.u.@ # L =.0 i.h p.0 p.h i.o a.d K @ X...@ 4 s.d.@ B ] ",
"B B h ; - = } { o [ ] # @ ' O o o ` _ @ ) ] 2.0 { } 4.- f.: | o , 5.1 @ g.h.@ 4 j.k.o 9.t 8.0 q l Q 0 r W y @ E R - @ l.:.@ y 5 ",
"| *.&.A 0 Z w C 0 V c B o z.M 4 @ m x.@ 1 b c.o B c V 0 #.w $.0 A S ) @ . t.0 o v.b.@ K ;.n.o -.h I - U h g o f d s @ X...@ ) ..",
"m.0 < , o > : ; - = * & o % $ # @ + O o o X M.@ # ] 2.o { } 4.- f.: | o N.B.1 @ g.h.@ 4 5 6 @ 7 t ~ 0 V.w Q 0 C.W y @ Z.R o # A.",
"g S.G F @ y &.%.0 Z w C 0 D.c F.o z.j.4 @ G.x.@ 1 +.w.o B : e.0 1.} $.0 / S ) @ M.X 0 o T J @ K ;.=.o z * k - j h g o f d 1 # 6 ",
"g H.3 a @ 1 <  .o m.h ; - J.* K.o x $ # @ + v.o o ` _ @ ) ] 2.0 L.} 4.0 P.: | o v b 1 @ I.U.@ 4 5 k.@ F.8 Y.0 V.w T.0 R.&.D # P ",
"g S.A.T o - G F @ y &.%.0 Z w V.0 E.c F.o k.j.4 @ m x.@ 1 b c.o B : e.0 1.} $.0 W.( ) @ F G 0 o H b.@ # $ x o K.* k - Q.h > # 9 ",
"g @ 6 5 4 @ 3 2 @ 1 <  .o g h Q.- k * K.o x $ # @ + O o o X M.@ ) ( W.0 $.} 1.- e.: B o !.< 1 @ a h.@ 4 j.k.o F.c E.0 V.w Z # k ",
"m.4 P ~.K @ A.^.o - R Z.@ y &.R.0 T.w V.0 Y.8 F.o z.j.4 @ G.x.@ 1 b v o | : P.0 4.} L.- %.&.D @ /.X 0 o v.+ @ # $ x o K.* = # Z ",
"| K 9 8 9.@ (.5 4 @ ..).@ s d f o g h j - k * K.0 x $ # @ + v.o 0 X M.@ ) S / 0 $.w 1.4 ; : > o N.b 1 @ x.G.@ 4 j.z.o F.c V K > ",
"{ # I h i.o n.;.K @ _.^.@ - R Z.@ y W C.0 T.w V.0 E.c F.o k.j.4 @ h.g.@ 1 B.N.o | : f.4 C w $.o W.( ) @ M.X o o O + @ # $ % 4 > ",
"4.# e w e 0 8.t 9.@ `.s.4 @ ..X.@ s d f o g l j - k * K.o x $ # @ b.v.o 0 t.. @ ) S / 0 { } 4.0 e.: B o c.b 1 @ x.m @ 4 M z.o g ",
"V # i.l I - p.h i.o n.;.K @ :.l.@ - R E @ y t C.0 T.w V.0 Y.8 F.@ k.j.4 @ h.g.@ 1 < N o B '.V 0 4.} L.0 2.] ) @ _ ` o o O ' S.g ",
"[ # 9.8 9 0 q w e 0 r t 9.@ d.s.4 @ ..X.@ s ;.f o g h j - k * z o =.L # @ u.y.o 0 t._ @ ) ] 2.o $.} 1.0 e.: B o w.+.1 @ n m H.g ",
"N # s Y P o z l I - U h i.o 0.d K @ :.>.@ - s.E @ y W C.0 Q w V.0 ~ 8 7.@ u i 4 @ p n @ 1 +.w.@ | : f.- 4.} { o 2.] # @ _ ` S.g ",
"].# 0 i u @ 7 8 9 0 ! w Q 0 r W y @ E ,.- @ l.X.@ s d f o g h U - I l z o =.L *.@ J O o o X _ @ ) S A 0 $.w #.0 V c B o N +.o g ",
"h.# @ H J @ K L =.o z l I - U h g o [.d s @ X.l.@ - R E @ y W r 0 Q w ! 0 9 8 7 @ u M 4 @ G.x.@ 1 5., o | : f.- 4.} { o [ ] 1 | ",
"t.y @ a p @ 4 i u @ 7.8 ~ 0 V.w Q 0 C.W y @ E s.4 @ ..X.@ K d a.o i.h U - I l z o {.] # @ + O o 0 t.r.@ D S A 0 Z w C 0 V : 9.B ",
";.F.@ /.t.0 o H u.@ # L =.o z l k - j h g o f ;.s @ :.>.@ 4 ,.E @ 9.t r 0 e w q 0 9 : F.o z.j.4 @ p a @ 1 5., o > : ; - = w z 7.",
"h i.@ , 5.1 @ g.p @ 4 }.k.@ F.|.Y.0 V.w T.0 C.t y @ E ,.- @ >.:.@ K ;.0.o i.h  X- I w K.o x $ # @ J H o 0 G F @ D &.%.0 Z w V.y ",
".X$.o A S D @ . t.0 o v.b.@ # $ XXo K.* k - j h g o [.d s @ X...@ 4 s.`.@ 9.t 8.0 e q.V.- Y.c F.@ u i 4 @ p a @ 1 <  .o m.h j # ",
".X4.0 f.: | o N.5.1 @ g.h.@ 4 j.k.@ F.c E.- ! w Q 0 C.W y @ E R - @ l.:.@ K ;.n.o i.w j - k * K.o P Y K @ J H o 0 G F @ y &.C.1 ",
"oXe.0 1.w $.0 / S ) @ M.X 0 o v.+ @ # $ x 0 z l k - j h g o f d s @ X...@ 4 5 `.o y t C.0 T.w V.0 9 8 7 @ 6 5 4 @ 3 2 @ 1 d f @ ",
"l W.o L.} 4.0 f.: | o v B.1 @ x.h.@ 4 j.z.o F.|.Y.0 V.w T.0 C.&.y @ Z.R - o ^._.@ 1 d f o g h j 0 I l -.o P Y K @ A.^.o - R E H.",
"] v o B : e.0 1.} $.0 / ( ) @ M.X o o O + @ # $ XXo K.* k - j h g o f OX1 @ ).3 @ - R E @ y W C.o e w q 0 +X8 9.@ (.5 4 @ ..X.  ",
"i M.@ ) ( W.0 $.} 4.0 e.: B o c.b 1 @ x.G.@ 4 j.k.@ F.c E.0 V.w Z 0 %.&.y @ Z.G - @ ..X.@ s d [.o i.h p.- p.l i.o n.;.K @ _...  ",
"l.g.@ 1 b c.o B : O.- 4.} L.0 2.] ) @ _ X o o v.+ @ # $ x o K.* J.- Q.h m.o  .< 1 @ :.>.@ 4 ,.E @ 9.8 8.0 e w e 0 8.t 9.@ `.R H.",
":.H o 0 X M.@ ) ( / 0 $.} 1.- e.: B o w.+.1 @ x.h.@ 4 j.z.o F.c D.0 C w Z 0 %.&.y o E ,.4 @ >.:.@ K ;.n.o i.h p.- p.h i.o n.< - ",
"`.5 4 @ h.g.@ 1 B.v o | : f.- 4.} { o 2.] ) @ M.X o o O + @ # $ % o K.* J.- ; : > 0 a.d K @ X...@ 4 5 6 @ 9.8 9 0 q w e 0 r S ) ",
"P ;.# @ + v.o 0 t.M.@ ) S A 0 $.w 1.0 V '.B o c.b 1 @ x.G.@ 4 M z.o F.c D.0 C w Z 4 r W y @ E R - @ ^.A.@ K Y P o z l I -  X'.> ",
"9 W F.@ k.j.4 @ h.g.@ 1 5.N.o | : f.- 4.} { 0 W.@X) @ _ X o o O ' @ # ] [ o { } = 4 U h g o f d s @ 2 U.@ 4 5 6 @ 7 8 9 0 q h Q ",
"k : K.o XX$ # @ b.v.o 0 t.. @ D S A 0 Z w C - e.: B o w.+.1 @ n m @ 4 M N o B c V 4 V.w Q 0 C.W y @ F G 0 o H J @ K Y P o z : I ",
"Z h V.0 ~ 8 F.@ k.6.4 @ p a @ 1 5., o | : ; - 4.} { o 2.] ) @ _ ` o o 3.' @ # ] [ - z * k - j h g o  .< 1 @ a p @ 4 i u @ 7.&.8.",
"| c j - k l z o =.L # @ J H o 0 #X/.@ D &.%.0 $.w 1.0 V '.B o N M 1 @ n @.@ 1 M N o F.c Y.0 V.w T.o %.&.D @ /.G 0 o H J @ *.;.0.",
"# S C.0 Q w ! 0 ~ 8 7.@ u i 4 @ p a @ 1 < , o | : f.- 4.} { o [ ] # @ ' 3.o o ` _ @ # $ x o K.* k 0 ; : > o , 5.1 @ a p @ 4 5 E ",
"0 < f o i.h U - I l z o P L K @ J H o 0 G F @ D S A 0 Z w C 0 V c B o N M 4 @ m n @ 4 j.k.o F.c E.0 C w $.0 A S D @ . t.0 o T X.",
"H.G E @ y t r 0 e w q 0 9 8 7 @ u i 4 @ ..X.@ 1 5., o | : ; - = } { o [ ] # @ ' O o o O + @ # $ x o { } 4.- f.: | o N.5.1 @ a H ",
"  3 X.@ K ;.0.o i.h  X- I l z o P Y K @ :.l.@ 0 #XF @ D &.%.0 Z w C 0 D.c F.o z.M 4 @ x.G.@ 4 j.z.@ B '.V 0 1.w $.0 A S ) @ /.j.",
"  _.>.@ 4 s.d.@ 9.t r 0 e w q 0 9 8 9.@ (.5 4 @ p a @ 1 < , o > h ; - = * K.o % $ # @ M.X o o O + @ ) ] 2.o { } 4.- f.: | o , ] ",
"S.`.s.4 @ l.:.@ K ;.0.o i.h p.- I l -.o P Y K @ J H o 0 G F @ y &.%.0 Z w C 0 D.c F.o c.b 1 @ x.G.@ 1 +.N o B : e.0 1.w $.o A } ",
"o 0.;.s @ X...@ 4 s.`.@ 9.t 8.0 e w q 0 +X8 9.o u i 4 @ p a @ 1 <  .o m.h ; - J.* K.- W.( ) @ _ X o o ` _ @ ) ] 2.0 L.} 4.0 f.oX",
"1 r t y @ $XR - @ l.:.@ K ;.n.o i.h p.- p.h i.o P Y K @ J H o 0 G F @ y &.%.0 Z w V.4 e.: B o w.+.1 @ m x.@ 1 b c.o B : e.0 1..X",
"#  Xh g o f d s @ X...@ 4 5 (.@ 9.t 8.0 e w e - 9 8 7 @ 6 5 4 @ 3 2 @ 1 <  .o g h Q.4 4.} L.o 2.] # @ + O o o X _ @ ) ( W.o $.%X",
"y q w T.0 C.&.y @ Z.R - o ^._.@ K ;.n.o i.l &X4 I l -.o P Y K @ A.^.o - G Z.@ y &.R.- $.} 1.0 V 8 B o z.j.4 @ G.x.@ 1 b v @ g : ",
"F.i.} k - j h g o f < 1 @ ).3 @ 4 5 6 @ 9.8 9 - e w q 0 +X8 9.@ (.5 4 @ 3 ).@ 1 d f 0 | : f.0 4.h K.o x $ # @ + O o 0 X M.@ F.< ",
"B y c E.0 V.w Z 0 %.&.y @ Z.G - o ^.A.@ K Y P o i.h p.- p.h i.o n.;.K @ _.^.@ - R Z.o ) S A 0 Z l C 0 E.c F.o z.j.4 @ h.g.@ y X ",
"> 1 $ x o K.* J.- Q.h m.o  .< 1 @ 2 U.@ 4 5 6 o 9.t 8.0 e w e 0 8.t 9.@ `.5 4 @ ..X.@ 1 5., o > : Q.0 k * K.o x $ # @ + v.@ # @.",
"g @ M z.o F.c D.0 C w Z 0 %.&.y @ F G 0 o H J @ K ;.n.o i.l p.- p.h i.o n.;.K @ :.l.o 0 t./.@ y S R.0 *Xw V.0 Y.c F.@ k.j.- # _ ",
"g S.O + @ # $ % o K.* =X- ; h > o !.< 1 @ a p @ 4 5 6 @ 9.8 9 0 q w e 0 r t 9.@ d.s.4 @ p a @ 1 5.f o g h j - k * K.o XX$ K # c.",
"g H.x.G.@ 4 M z.o F.c V 0 C w Z 0 %.&.D @ /.#X0 o ^.A.@ K Y P o z l I -  Xh i.o 0.;.K @ J H o - G Z.@ y &.C.0 T.w V.0 ~ 8 9.# W.",
"g S._ X o o O ' @ # ] [ o { } = - ; : | o , 5.1 @ 2 U.@ 4 i 6 @ 7 8 9 0 q w e 0 r t y o u i 4 @ -XX.@ s d f o g h U - k l z # P.",
"g o w.+.1 @ n m @ 4 M N o B c V 0 C w Z 0 A S D @ F G 0 o H J @ K L P o z l I - U h g 0 P Y K @ J l.@ - R E @ y W r 0 Q w q # 1.",
"| 1 2.] ) @ _ ` o o 3.' @ # ] [ o { } 4.- f.: | o !.< 1 @ a p @ 4 i u @ 7.8 ~ 0 ! w Q 4 9 8 9.@ (.,.4 @ ..X.@ s d a.o i.h  X# K.",
"m.K e.'.B o N M 1 @ @.n @ 1 M N o B '.V - 1.w $.0 %.&.D @ /.#X0 o H J @ # L =.o z l k 4 &Xl -.o 0.d K @ :.>.@ 4 ,.E @ y t r s | ",
"Q # 4.} { o [ ] # @ ' 3.o o ` _ @ ) ] 2.0 { w = - ; : | o , 5.1 @ a p @ 4 6.k.@ F.8 Y.4 e w e o r t y @ E ,.4 @ >.:.@ K ;.0.4 m.",
"&X# $.w C 0 V c B o N M 4 @ m n @ 1 +.w.o B : V - C w Z 0 A S D @ . t.0 o v.b.@ # $ P o i.h p.0 U h i.o [.d s @ X...@ 4 s.d.@ g ",
"8.# | : ; - = } & o % $ # @ ].O o o X _ @ ) ( 2.o { } 4.- f.: | o N.5.1 @ g.h.@ 4 j.(.@ 9.8 9 o V.w Q 0 C.W y @ E R - @ l.:.S.g ",
"n.# ) &.A 0 Z w C 0 V c B o z.M 4 @ m x.@ 1 b N o B c V 0 #.w $.0 A S ) @ . t.0 o v.A.@ K ;.n.o z l I - U h g o f d s @ X...H.g ",
"`.# 1 <  .o > : ; - J.* K.o x $ # @ + O o o X _ @ ) ] 2.0 L.} 4.- f.: | o v b 1 @ ;X3 @ 4 5 6 @ F.8 Y.0 V.w T.0 C.&.y @ Z.R S.g "
};
